  0
SECTION
  2
HEADER
  9
$ACADVER
  1
AC1014
  9
$HANDSEED
  5
FFFF
  9
$INSUNITS
 70
     4
  9
$MEASUREMENT
 70
     1
  0
ENDSEC
  0
SECTION
  2
TABLES
  0
TABLE
  2
VPORT
  5
8
330
0
100
AcDbSymbolTable
 70
     4
  0
VPORT
  5
2E
330
8
100
AcDbSymbolTableRecord
100
AcDbViewportTableRecord
  2
*ACTIVE
 70
     0
 10
0.0
 20
0.0
 11
1.0
 21
1.0
 12
210.0
 22
148.5
 13
0.0
 23
0.0
 14
10.0
 24
10.0
 15
10.0
 25
10.0
 16
0.0
 26
0.0
 36
1.0
 17
0.0
 27
0.0
 37
0.0
 40
341.0
 41
1.24
 42
50.0
 43
0.0
 44
0.0
 50
0.0
 51
0.0
 71
     0
 72
   100
 73
     1
 74
     3
 75
     0
 76
     0
 77
     0
 78
     0
  0
ENDTAB
  0
TABLE
  2
LTYPE
  5
5
330
0
100
AcDbSymbolTable
 70
     1
  0
LTYPE
  5
14
330
5
100
AcDbSymbolTableRecord
100
AcDbLinetypeTableRecord
  2
BYBLOCK
 70
     0
  3

 72
    65
 73
     0
 40
0.0
  0
LTYPE
  5
15
330
5
100
AcDbSymbolTableRecord
100
AcDbLinetypeTableRecord
  2
BYLAYER
 70
     0
  3

 72
    65
 73
     0
 40
0.0
  0
LTYPE
  5
16
330
5
100
AcDbSymbolTableRecord
100
AcDbLinetypeTableRecord
  2
CONTINUOUS
 70
     0
  3
Solid line
 72
    65
 73
     0
 40
0.0
  0
ENDTAB
  0
TABLE
  2
LAYER
  5
2
100
AcDbSymbolTable
 70
2
  0
LAYER
  5
50
100
AcDbSymbolTableRecord
100
AcDbLayerTableRecord
  2
0
 70
0
  6
CONTINUOUS
  0
LAYER
  5
51
100
AcDbSymbolTableRecord
100
AcDbLayerTableRecord
  2
Layer_1
 70
0
  6
CONTINUOUS
  0
ENDTAB
  0
TABLE
  2
STYLE
  5
3
330
0
100
AcDbSymbolTable
 70
     1
  0
STYLE
  5
11
330
3
100
AcDbSymbolTableRecord
100
AcDbTextStyleTableRecord
  2
STANDARD
 70
     0
 40
0.0
 41
1.0
 50
0.0
 71
     0
 42
2.5
  3
txt
  4

  0
ENDTAB
  0
TABLE
  2
VIEW
  5
6
330
0
100
AcDbSymbolTable
 70
     0
  0
ENDTAB
  0
TABLE
  2
UCS
  5
7
330
0
100
AcDbSymbolTable
 70
     0
  0
ENDTAB
  0
TABLE
  2
APPID
  5
9
330
0
100
AcDbSymbolTable
 70
     2
  0
APPID
  5
12
330
9
100
AcDbSymbolTableRecord
100
AcDbRegAppTableRecord
  2
ACAD
 70
     0
  0
ENDTAB
  0
TABLE
  2
DIMSTYLE
  5
A
330
0
100
AcDbSymbolTable
 70
     1
  0
DIMSTYLE
105
27
330
A
100
AcDbSymbolTableRecord
100
AcDbDimStyleTableRecord
  2
ISO-25
 70
     0
  3

  4

  5

  6

  7

 40
1.0
 41
2.5
 42
0.625
 43
3.75
 44
1.25
 45
0.0
 46
0.0
 47
0.0
 48
0.0
140
2.5
141
2.5
142
0.0
143
0.03937007874016
144
1.0
145
0.0
146
1.0
147
0.625
 71
     0
 72
     0
 73
     0
 74
     0
 75
     0
 76
     0
 77
     1
 78
     8
170
     0
171
     3
172
     1
173
     0
174
     0
175
     0
176
     0
177
     0
178
     0
270
     2
271
     2
272
     2
273
     2
274
     3
340
11
275
     0
280
     0
281
     0
282
     0
283
     0
284
     8
285
     0
286
     0
287
     3
288
     0
  0
ENDTAB
  0
TABLE
  2
BLOCK_RECORD
  5
1
330
0
100
AcDbSymbolTable
 70
     1
  0
BLOCK_RECORD
  5
1F
330
1
100
AcDbSymbolTableRecord
100
AcDbBlockTableRecord
  2
*MODEL_SPACE
  0
BLOCK_RECORD
  5
1B
330
1
100
AcDbSymbolTableRecord
100
AcDbBlockTableRecord
  2
*PAPER_SPACE
  0
ENDTAB
  0
ENDSEC
  0
SECTION
  2
BLOCKS
  0
BLOCK
  5
20
330
1F
100
AcDbEntity
  8
0
100
AcDbBlockBegin
  2
*MODEL_SPACE
 70
     0
 10
0.0
 20
0.0
 30
0.0
  3
*MODEL_SPACE
  1

  0
ENDBLK
  5
21
330
1F
100
AcDbEntity
  8
0
100
AcDbBlockEnd
  0
BLOCK
  5
1C
330
1B
100
AcDbEntity
 67
     1
  8
0
100
AcDbBlockBegin
  2
*PAPER_SPACE
  1

  0
ENDBLK
  5
1D
330
1B
100
AcDbEntity
 67
     1
  8
0
100
AcDbBlockEnd
  0
ENDSEC
  0
SECTION
  2
ENTITIES
  0
LINE
  5
100
100
AcDbEntity
  8
Layer_1
 62
7
100
AcDbLine
 10
59.513650
 20
239.346092
 30
0.0
 11
54.377596
 21
239.346092
 31
0.0
  0
LINE
  5
101
100
AcDbEntity
  8
Layer_1
 62
7
100
AcDbLine
 10
54.377596
 20
239.346092
 30
0.0
 11
54.377596
 21
259.346089
 31
0.0
  0
LINE
  5
102
100
AcDbEntity
  8
Layer_1
 62
7
100
AcDbLine
 10
54.377596
 20
259.346089
 30
0.0
 11
47.778958
 21
259.346089
 31
0.0
  0
LINE
  5
103
100
AcDbEntity
  8
Layer_1
 62
7
100
AcDbLine
 10
47.778958
 20
259.346089
 30
0.0
 11
47.778958
 21
263.631802
 31
0.0
  0
LINE
  5
104
100
AcDbEntity
  8
Layer_1
 62
7
100
AcDbLine
 10
47.778958
 20
263.631802
 30
0.0
 11
66.112288
 21
263.631802
 31
0.0
  0
LINE
  5
105
100
AcDbEntity
  8
Layer_1
 62
7
100
AcDbLine
 10
66.112288
 20
263.631802
 30
0.0
 11
66.112288
 21
259.346089
 31
0.0
  0
LINE
  5
106
100
AcDbEntity
  8
Layer_1
 62
7
100
AcDbLine
 10
66.112288
 20
259.346089
 30
0.0
 11
59.513650
 21
259.346089
 31
0.0
  0
LINE
  5
107
100
AcDbEntity
  8
Layer_1
 62
7
100
AcDbLine
 10
59.513650
 20
259.346089
 30
0.0
 11
59.513650
 21
239.346092
 31
0.0
  0
SPLINE
  5
108
100
AcDbEntity
  8
Layer_1
 62
7
100
AcDbSpline
 70
8
 71
3
 72
8
 73
4
 74
0
 40
0
 40
0
 40
0
 40
0
 40
1
 40
1
 40
1
 40
1
 10
74.717755
 20
258.257653
 30
0.0
 10
77.280113
 20
258.257653
 30
0.0
 10
79.309591
 20
257.520692
 30
0.0
 10
80.806189
 20
256.046770
 30
0.0
  0
SPLINE
  5
109
100
AcDbEntity
  8
Layer_1
 62
7
100
AcDbSpline
 70
8
 71
3
 72
8
 73
4
 74
0
 40
0
 40
0
 40
0
 40
0
 40
1
 40
1
 40
1
 40
1
 10
80.806189
 20
256.046770
 30
0.0
 10
82.302788
 20
254.595523
 30
0.0
 10
83.051087
 20
252.520693
 30
0.0
 10
83.051087
 20
249.822281
 30
0.0
  0
LINE
  5
10a
100
AcDbEntity
  8
Layer_1
 62
7
100
AcDbLine
 10
83.051087
 20
249.822281
 30
0.0
 11
83.051087
 21
247.373302
 31
0.0
  0
LINE
  5
10b
100
AcDbEntity
  8
Layer_1
 62
7
100
AcDbLine
 10
83.051087
 20
247.373302
 30
0.0
 11
71.078300
 21
247.373302
 31
0.0
  0
SPLINE
  5
10c
100
AcDbEntity
  8
Layer_1
 62
7
100
AcDbSpline
 70
8
 71
3
 72
8
 73
4
 74
0
 40
0
 40
0
 40
0
 40
0
 40
1
 40
1
 40
1
 40
1
 10
71.078300
 20
247.373302
 30
0.0
 10
71.123653
 20
245.944731
 30
0.0
 10
71.543154
 20
244.822282
 30
0.0
 10
72.336803
 20
244.005955
 30
0.0
  0
SPLINE
  5
10d
100
AcDbEntity
  8
Layer_1
 62
7
100
AcDbSpline
 70
8
 71
3
 72
8
 73
4
 74
0
 40
0
 40
0
 40
0
 40
0
 40
1
 40
1
 40
1
 40
1
 10
72.336803
 20
244.005955
 30
0.0
 10
73.153130
 20
243.189629
 30
0.0
 10
74.275578
 20
242.781466
 30
0.0
 10
75.704149
 20
242.781466
 30
0.0
  0
SPLINE
  5
10e
100
AcDbEntity
  8
Layer_1
 62
7
100
AcDbSpline
 70
8
 71
3
 72
8
 73
4
 74
0
 40
0
 40
0
 40
0
 40
0
 40
1
 40
1
 40
1
 40
1
 10
75.704149
 20
242.781466
 30
0.0
 10
76.905963
 20
242.781466
 30
0.0
 10
77.994398
 20
242.894845
 30
0.0
 10
78.969455
 20
243.121602
 30
0.0
  0
SPLINE
  5
10f
100
AcDbEntity
  8
Layer_1
 62
7
100
AcDbSpline
 70
8
 71
3
 72
8
 73
4
 74
0
 40
0
 40
0
 40
0
 40
0
 40
1
 40
1
 40
1
 40
1
 10
78.969455
 20
243.121602
 30
0.0
 10
79.944512
 20
243.371035
 30
0.0
 10
80.953582
 20
243.745184
 30
0.0
 10
81.996665
 20
244.244051
 30
0.0
  0
LINE
  5
110
100
AcDbEntity
  8
Layer_1
 62
7
100
AcDbLine
 10
81.996665
 20
244.244051
 30
0.0
 11
81.996665
 21
240.332487
 31
0.0
  0
SPLINE
  5
111
100
AcDbEntity
  8
Layer_1
 62
7
100
AcDbSpline
 70
8
 71
3
 72
8
 73
4
 74
0
 40
0
 40
0
 40
0
 40
0
 40
1
 40
1
 40
1
 40
1
 10
81.996665
 20
240.332487
 30
0.0
 10
81.089636
 20
239.878972
 30
0.0
 10
80.125917
 20
239.550174
 30
0.0
 10
79.105509
 20
239.346092
 30
0.0
  0
SPLINE
  5
112
100
AcDbEntity
  8
Layer_1
 62
7
100
AcDbSpline
 70
8
 71
3
 72
8
 73
4
 74
0
 40
0
 40
0
 40
0
 40
0
 40
1
 40
1
 40
1
 40
1
 10
79.105509
 20
239.346092
 30
0.0
 10
78.107777
 20
239.119335
 30
0.0
 10
76.894625
 20
239.005956
 30
0.0
 10
75.466054
 20
239.005956
 30
0.0
  0
SPLINE
  5
113
100
AcDbEntity
  8
Layer_1
 62
7
100
AcDbSpline
 70
8
 71
3
 72
8
 73
4
 74
0
 40
0
 40
0
 40
0
 40
0
 40
1
 40
1
 40
1
 40
1
 10
75.466054
 20
239.005956
 30
0.0
 10
73.606644
 20
239.005956
 30
0.0
 10
71.962653
 20
239.346092
 30
0.0
 10
70.534082
 20
240.026364
 30
0.0
  0
SPLINE
  5
114
100
AcDbEntity
  8
Layer_1
 62
7
100
AcDbSpline
 70
8
 71
3
 72
8
 73
4
 74
0
 40
0
 40
0
 40
0
 40
0
 40
1
 40
1
 40
1
 40
1
 10
70.534082
 20
240.026364
 30
0.0
 10
69.105511
 20
240.729312
 30
0.0
 10
67.983063
 20
241.783734
 30
0.0
 10
67.166736
 20
243.189629
 30
0.0
  0
SPLINE
  5
115
100
AcDbEntity
  8
Layer_1
 62
7
100
AcDbSpline
 70
8
 71
3
 72
8
 73
4
 74
0
 40
0
 40
0
 40
0
 40
0
 40
1
 40
1
 40
1
 40
1
 10
67.166736
 20
243.189629
 30
0.0
 10
66.350409
 20
244.595524
 30
0.0
 10
65.942246
 20
246.364231
 30
0.0
 10
65.942246
 20
248.495750
 30
0.0
  0
SPLINE
  5
116
100
AcDbEntity
  8
Layer_1
 62
7
100
AcDbSpline
 70
8
 71
3
 72
8
 73
4
 74
0
 40
0
 40
0
 40
0
 40
0
 40
1
 40
1
 40
1
 40
1
 10
65.942246
 20
248.495750
 30
0.0
 10
65.942246
 20
250.672621
 30
0.0
 10
66.305058
 20
252.475342
 30
0.0
 10
67.030682
 20
253.903913
 30
0.0
  0
SPLINE
  5
117
100
AcDbEntity
  8
Layer_1
 62
7
100
AcDbSpline
 70
8
 71
3
 72
8
 73
4
 74
0
 40
0
 40
0
 40
0
 40
0
 40
1
 40
1
 40
1
 40
1
 10
67.030682
 20
253.903913
 30
0.0
 10
67.778981
 20
255.355160
 30
0.0
 10
68.810726
 20
256.443595
 30
0.0
 10
70.125919
 20
257.169218
 30
0.0
  0
SPLINE
  5
118
100
AcDbEntity
  8
Layer_1
 62
7
100
AcDbSpline
 70
8
 71
3
 72
8
 73
4
 74
0
 40
0
 40
0
 40
0
 40
0
 40
1
 40
1
 40
1
 40
1
 10
70.125919
 20
257.169218
 30
0.0
 10
71.441112
 20
257.894841
 30
0.0
 10
72.971724
 20
258.257653
 30
0.0
 10
74.717755
 20
258.257653
 30
0.0
  0
LINE
  5
119
100
AcDbEntity
  8
Layer_1
 62
7
100
AcDbLine
 10
74.717755
 20
258.257653
 30
0.0
 11
74.717755
 21
258.257653
 31
0.0
  0
SPLINE
  5
11a
100
AcDbEntity
  8
Layer_1
 62
7
100
AcDbSpline
 70
8
 71
3
 72
8
 73
4
 74
0
 40
0
 40
0
 40
0
 40
0
 40
1
 40
1
 40
1
 40
1
 10
74.751765
 20
254.652212
 30
0.0
 10
73.776708
 20
254.652212
 30
0.0
 10
72.960382
 20
254.334752
 30
0.0
 10
72.302786
 20
253.699831
 30
0.0
  0
SPLINE
  5
11b
100
AcDbEntity
  8
Layer_1
 62
7
100
AcDbSpline
 70
8
 71
3
 72
8
 73
4
 74
0
 40
0
 40
0
 40
0
 40
0
 40
1
 40
1
 40
1
 40
1
 10
72.302786
 20
253.699831
 30
0.0
 10
71.667865
 20
253.064910
 30
0.0
 10
71.293716
 20
252.078516
 30
0.0
 10
71.180337
 20
250.740648
 30
0.0
  0
LINE
  5
11c
100
AcDbEntity
  8
Layer_1
 62
7
100
AcDbLine
 10
71.180337
 20
250.740648
 30
0.0
 11
78.289179
 21
250.740648
 31
0.0
  0
SPLINE
  5
11d
100
AcDbEntity
  8
Layer_1
 62
7
100
AcDbSpline
 70
8
 71
3
 72
8
 73
4
 74
0
 40
0
 40
0
 40
0
 40
0
 40
1
 40
1
 40
1
 40
1
 10
78.289179
 20
250.740648
 30
0.0
 10
78.266506
 20
251.874435
 30
0.0
 10
77.971721
 20
252.804140
 30
0.0
 10
77.404825
 20
253.529763
 30
0.0
  0
SPLINE
  5
11e
100
AcDbEntity
  8
Layer_1
 62
7
100
AcDbSpline
 70
8
 71
3
 72
8
 73
4
 74
0
 40
0
 40
0
 40
0
 40
0
 40
1
 40
1
 40
1
 40
1
 10
77.404825
 20
253.529763
 30
0.0
 10
76.837932
 20
254.278062
 30
0.0
 10
75.953578
 20
254.652212
 30
0.0
 10
74.751765
 20
254.652212
 30
0.0
  0
LINE
  5
11f
100
AcDbEntity
  8
Layer_1
 62
7
100
AcDbLine
 10
74.751765
 20
254.652212
 30
0.0
 11
74.751765
 21
254.652212
 31
0.0
  0
SPLINE
  5
120
100
AcDbEntity
  8
Layer_1
 62
7
100
AcDbSpline
 70
8
 71
3
 72
8
 73
4
 74
0
 40
0
 40
0
 40
0
 40
0
 40
1
 40
1
 40
1
 40
1
 10
100.125900
 20
244.856295
 30
0.0
 10
100.125900
 20
242.974210
 30
0.0
 10
99.456965
 20
241.522963
 30
0.0
 10
98.119096
 20
240.502555
 30
0.0
  0
SPLINE
  5
121
100
AcDbEntity
  8
Layer_1
 62
7
100
AcDbSpline
 70
8
 71
3
 72
8
 73
4
 74
0
 40
0
 40
0
 40
0
 40
0
 40
1
 40
1
 40
1
 40
1
 10
98.119096
 20
240.502555
 30
0.0
 10
96.803904
 20
239.504822
 30
0.0
 10
94.831115
 20
239.005956
 30
0.0
 10
92.200730
 20
239.005956
 30
0.0
  0
SPLINE
  5
122
100
AcDbEntity
  8
Layer_1
 62
7
100
AcDbSpline
 70
8
 71
3
 72
8
 73
4
 74
0
 40
0
 40
0
 40
0
 40
0
 40
1
 40
1
 40
1
 40
1
 10
92.200730
 20
239.005956
 30
0.0
 10
90.908213
 20
239.005956
 30
0.0
 10
89.797102
 20
239.096659
 30
0.0
 10
88.867397
 20
239.278065
 30
0.0
  0
SPLINE
  5
123
100
AcDbEntity
  8
Layer_1
 62
7
100
AcDbSpline
 70
8
 71
3
 72
8
 73
4
 74
0
 40
0
 40
0
 40
0
 40
0
 40
1
 40
1
 40
1
 40
1
 10
88.867397
 20
239.278065
 30
0.0
 10
87.937692
 20
239.436795
 30
0.0
 10
87.007987
 20
239.708904
 30
0.0
 10
86.078282
 20
240.094391
 30
0.0
  0
LINE
  5
124
100
AcDbEntity
  8
Layer_1
 62
7
100
AcDbLine
 10
86.078282
 20
240.094391
 30
0.0
 11
86.078282
 21
244.278064
 31
0.0
  0
SPLINE
  5
125
100
AcDbEntity
  8
Layer_1
 62
7
100
AcDbSpline
 70
8
 71
3
 72
8
 73
4
 74
0
 40
0
 40
0
 40
0
 40
0
 40
1
 40
1
 40
1
 40
1
 10
86.078282
 20
244.278064
 30
0.0
 10
87.076015
 20
243.824549
 30
0.0
 10
88.153112
 20
243.450400
 30
0.0
 10
89.309574
 20
243.155615
 30
0.0
  0
SPLINE
  5
126
100
AcDbEntity
  8
Layer_1
 62
7
100
AcDbSpline
 70
8
 71
3
 72
8
 73
4
 74
0
 40
0
 40
0
 40
0
 40
0
 40
1
 40
1
 40
1
 40
1
 10
89.309574
 20
243.155615
 30
0.0
 10
90.466037
 20
242.860831
 30
0.0
 10
91.486445
 20
242.713439
 30
0.0
 10
92.370798
 20
242.713439
 30
0.0
  0
SPLINE
  5
127
100
AcDbEntity
  8
Layer_1
 62
7
100
AcDbSpline
 70
8
 71
3
 72
8
 73
4
 74
0
 40
0
 40
0
 40
0
 40
0
 40
1
 40
1
 40
1
 40
1
 10
92.370798
 20
242.713439
 30
0.0
 10
93.368530
 20
242.713439
 30
0.0
 10
94.071478
 20
242.860831
 30
0.0
 10
94.479641
 20
243.155615
 30
0.0
  0
SPLINE
  5
128
100
AcDbEntity
  8
Layer_1
 62
7
100
AcDbSpline
 70
8
 71
3
 72
8
 73
4
 74
0
 40
0
 40
0
 40
0
 40
0
 40
1
 40
1
 40
1
 40
1
 10
94.479641
 20
243.155615
 30
0.0
 10
94.910480
 20
243.450400
 30
0.0
 10
95.125900
 20
243.835887
 30
0.0
 10
95.125900
 20
244.312078
 30
0.0
  0
SPLINE
  5
129
100
AcDbEntity
  8
Layer_1
 62
7
100
AcDbSpline
 70
8
 71
3
 72
8
 73
4
 74
0
 40
0
 40
0
 40
0
 40
0
 40
1
 40
1
 40
1
 40
1
 10
95.125900
 20
244.312078
 30
0.0
 10
95.125900
 20
244.629538
 30
0.0
 10
95.035197
 20
244.912985
 30
0.0
 10
94.853791
 20
245.162418
 30
0.0
  0
SPLINE
  5
12a
100
AcDbEntity
  8
Layer_1
 62
7
100
AcDbSpline
 70
8
 71
3
 72
8
 73
4
 74
0
 40
0
 40
0
 40
0
 40
0
 40
1
 40
1
 40
1
 40
1
 10
94.853791
 20
245.162418
 30
0.0
 10
94.695061
 20
245.411851
 30
0.0
 10
94.332249
 20
245.695297
 30
0.0
 10
93.765356
 20
246.012758
 30
0.0
  0
SPLINE
  5
12b
100
AcDbEntity
  8
Layer_1
 62
7
100
AcDbSpline
 70
8
 71
3
 72
8
 73
4
 74
0
 40
0
 40
0
 40
0
 40
0
 40
1
 40
1
 40
1
 40
1
 10
93.765356
 20
246.012758
 30
0.0
 10
93.198463
 20
246.330218
 30
0.0
 10
92.314109
 20
246.738381
 30
0.0
 10
91.112295
 20
247.237247
 30
0.0
  0
SPLINE
  5
12c
100
AcDbEntity
  8
Layer_1
 62
7
100
AcDbSpline
 70
8
 71
3
 72
8
 73
4
 74
0
 40
0
 40
0
 40
0
 40
0
 40
1
 40
1
 40
1
 40
1
 10
91.112295
 20
247.237247
 30
0.0
 10
89.955832
 20
247.736113
 30
0.0
 10
89.003452
 20
248.223641
 30
0.0
 10
88.255153
 20
248.699832
 30
0.0
  0
SPLINE
  5
12d
100
AcDbEntity
  8
Layer_1
 62
7
100
AcDbSpline
 70
8
 71
3
 72
8
 73
4
 74
0
 40
0
 40
0
 40
0
 40
0
 40
1
 40
1
 40
1
 40
1
 10
88.255153
 20
248.699832
 30
0.0
 10
87.506854
 20
249.198698
 30
0.0
 10
86.951298
 20
249.788267
 30
0.0
 10
86.588486
 20
250.468539
 30
0.0
  0
SPLINE
  5
12e
100
AcDbEntity
  8
Layer_1
 62
7
100
AcDbSpline
 70
8
 71
3
 72
8
 73
4
 74
0
 40
0
 40
0
 40
0
 40
0
 40
1
 40
1
 40
1
 40
1
 10
86.588486
 20
250.468539
 30
0.0
 10
86.225675
 20
251.171487
 30
0.0
 10
86.044269
 20
252.044503
 30
0.0
 10
86.044269
 20
253.087586
 30
0.0
  0
SPLINE
  5
12f
100
AcDbEntity
  8
Layer_1
 62
7
100
AcDbSpline
 70
8
 71
3
 72
8
 73
4
 74
0
 40
0
 40
0
 40
0
 40
0
 40
1
 40
1
 40
1
 40
1
 10
86.044269
 20
253.087586
 30
0.0
 10
86.044269
 20
254.810942
 30
0.0
 10
86.713203
 20
256.103459
 30
0.0
 10
88.051071
 20
256.965137
 30
0.0
  0
SPLINE
  5
130
100
AcDbEntity
  8
Layer_1
 62
7
100
AcDbSpline
 70
8
 71
3
 72
8
 73
4
 74
0
 40
0
 40
0
 40
0
 40
0
 40
1
 40
1
 40
1
 40
1
 10
88.051071
 20
256.965137
 30
0.0
 10
89.388939
 20
257.826814
 30
0.0
 10
91.168984
 20
258.257653
 30
0.0
 10
93.391206
 20
258.257653
 30
0.0
  0
SPLINE
  5
131
100
AcDbEntity
  8
Layer_1
 62
7
100
AcDbSpline
 70
8
 71
3
 72
8
 73
4
 74
0
 40
0
 40
0
 40
0
 40
0
 40
1
 40
1
 40
1
 40
1
 10
93.391206
 20
258.257653
 30
0.0
 10
94.547669
 20
258.257653
 30
0.0
 10
95.647442
 20
258.144274
 30
0.0
 10
96.690525
 20
257.917517
 30
0.0
  0
SPLINE
  5
132
100
AcDbEntity
  8
Layer_1
 62
7
100
AcDbSpline
 70
8
 71
3
 72
8
 73
4
 74
0
 40
0
 40
0
 40
0
 40
0
 40
1
 40
1
 40
1
 40
1
 10
96.690525
 20
257.917517
 30
0.0
 10
97.733609
 20
257.690760
 30
0.0
 10
98.810706
 20
257.316611
 30
0.0
 10
99.921817
 20
256.795069
 30
0.0
  0
LINE
  5
133
100
AcDbEntity
  8
Layer_1
 62
7
100
AcDbLine
 10
99.921817
 20
256.795069
 30
0.0
 11
98.391205
 21
253.155614
 31
0.0
  0
SPLINE
  5
134
100
AcDbEntity
  8
Layer_1
 62
7
100
AcDbSpline
 70
8
 71
3
 72
8
 73
4
 74
0
 40
0
 40
0
 40
0
 40
0
 40
1
 40
1
 40
1
 40
1
 10
98.391205
 20
253.155614
 30
0.0
 10
97.484176
 20
253.541101
 30
0.0
 10
96.622498
 20
253.858561
 30
0.0
 10
95.806172
 20
254.107994
 30
0.0
  0
SPLINE
  5
135
100
AcDbEntity
  8
Layer_1
 62
7
100
AcDbSpline
 70
8
 71
3
 72
8
 73
4
 74
0
 40
0
 40
0
 40
0
 40
0
 40
1
 40
1
 40
1
 40
1
 10
95.806172
 20
254.107994
 30
0.0
 10
94.989845
 20
254.380103
 30
0.0
 10
94.162181
 20
254.516158
 30
0.0
 10
93.323179
 20
254.516158
 30
0.0
  0
SPLINE
  5
136
100
AcDbEntity
  8
Layer_1
 62
7
100
AcDbSpline
 70
8
 71
3
 72
8
 73
4
 74
0
 40
0
 40
0
 40
0
 40
0
 40
1
 40
1
 40
1
 40
1
 10
93.323179
 20
254.516158
 30
0.0
 10
91.826580
 20
254.516158
 30
0.0
 10
91.078281
 20
254.107995
 30
0.0
 10
91.078281
 20
253.291668
 30
0.0
  0
SPLINE
  5
137
100
AcDbEntity
  8
Layer_1
 62
7
100
AcDbSpline
 70
8
 71
3
 72
8
 73
4
 74
0
 40
0
 40
0
 40
0
 40
0
 40
1
 40
1
 40
1
 40
1
 10
91.078281
 20
253.291668
 30
0.0
 10
91.078281
 20
252.996883
 30
0.0
 10
91.168984
 20
252.724775
 30
0.0
 10
91.350390
 20
252.475342
 30
0.0
  0
SPLINE
  5
138
100
AcDbEntity
  8
Layer_1
 62
7
100
AcDbSpline
 70
8
 71
3
 72
8
 73
4
 74
0
 40
0
 40
0
 40
0
 40
0
 40
1
 40
1
 40
1
 40
1
 10
91.350390
 20
252.475342
 30
0.0
 10
91.554471
 20
252.248585
 30
0.0
 10
91.928621
 20
251.999151
 30
0.0
 10
92.472839
 20
251.727042
 30
0.0
  0
SPLINE
  5
139
100
AcDbEntity
  8
Layer_1
 62
7
100
AcDbSpline
 70
8
 71
3
 72
8
 73
4
 74
0
 40
0
 40
0
 40
0
 40
0
 40
1
 40
1
 40
1
 40
1
 10
92.472839
 20
251.727042
 30
0.0
 10
93.039732
 20
251.454933
 30
0.0
 10
93.867397
 20
251.092122
 30
0.0
 10
94.955832
 20
250.638607
 30
0.0
  0
SPLINE
  5
13a
100
AcDbEntity
  8
Layer_1
 62
7
100
AcDbSpline
 70
8
 71
3
 72
8
 73
4
 74
0
 40
0
 40
0
 40
0
 40
0
 40
1
 40
1
 40
1
 40
1
 10
94.955832
 20
250.638607
 30
0.0
 10
96.021591
 20
250.207768
 30
0.0
 10
96.939958
 20
249.754254
 30
0.0
 10
97.710933
 20
249.278063
 30
0.0
  0
SPLINE
  5
13b
100
AcDbEntity
  8
Layer_1
 62
7
100
AcDbSpline
 70
8
 71
3
 72
8
 73
4
 74
0
 40
0
 40
0
 40
0
 40
0
 40
1
 40
1
 40
1
 40
1
 10
97.710933
 20
249.278063
 30
0.0
 10
98.481908
 20
248.824548
 30
0.0
 10
99.071477
 20
248.246317
 30
0.0
 10
99.479640
 20
247.543370
 30
0.0
  0
SPLINE
  5
13c
100
AcDbEntity
  8
Layer_1
 62
7
100
AcDbSpline
 70
8
 71
3
 72
8
 73
4
 74
0
 40
0
 40
0
 40
0
 40
0
 40
1
 40
1
 40
1
 40
1
 10
99.479640
 20
247.543370
 30
0.0
 10
99.910480
 20
246.863098
 30
0.0
 10
100.125900
 20
245.967406
 30
0.0
 10
100.125900
 20
244.856295
 30
0.0
  0
LINE
  5
13d
100
AcDbEntity
  8
Layer_1
 62
7
100
AcDbLine
 10
100.125900
 20
244.856295
 30
0.0
 11
100.125900
 21
244.856295
 31
0.0
  0
SPLINE
  5
13e
100
AcDbEntity
  8
Layer_1
 62
7
100
AcDbSpline
 70
8
 71
3
 72
8
 73
4
 74
0
 40
0
 40
0
 40
0
 40
0
 40
1
 40
1
 40
1
 40
1
 10
111.894600
 20
243.053575
 30
0.0
 10
112.461493
 20
243.053575
 30
0.0
 10
113.005710
 20
243.110264
 30
0.0
 10
113.527250
 20
243.223643
 30
0.0
  0
SPLINE
  5
13f
100
AcDbEntity
  8
Layer_1
 62
7
100
AcDbSpline
 70
8
 71
3
 72
8
 73
4
 74
0
 40
0
 40
0
 40
0
 40
0
 40
1
 40
1
 40
1
 40
1
 10
113.527250
 20
243.223643
 30
0.0
 10
114.048797
 20
243.337022
 30
0.0
 10
114.570340
 20
243.473076
 30
0.0
 10
115.091880
 20
243.631806
 30
0.0
  0
LINE
  5
140
100
AcDbEntity
  8
Layer_1
 62
7
100
AcDbLine
 10
115.091880
 20
243.631806
 30
0.0
 11
115.091880
 21
239.856296
 31
0.0
  0
SPLINE
  5
141
100
AcDbEntity
  8
Layer_1
 62
7
100
AcDbSpline
 70
8
 71
3
 72
8
 73
4
 74
0
 40
0
 40
0
 40
0
 40
0
 40
1
 40
1
 40
1
 40
1
 10
115.091880
 20
239.856296
 30
0.0
 10
114.547660
 20
239.629539
 30
0.0
 10
113.867387
 20
239.436795
 30
0.0
 10
113.051060
 20
239.278065
 30
0.0
  0
SPLINE
  5
142
100
AcDbEntity
  8
Layer_1
 62
7
100
AcDbSpline
 70
8
 71
3
 72
8
 73
4
 74
0
 40
0
 40
0
 40
0
 40
0
 40
1
 40
1
 40
1
 40
1
 10
113.051060
 20
239.278065
 30
0.0
 10
112.257413
 20
239.096659
 30
0.0
 10
111.384400
 20
239.005956
 30
0.0
 10
110.432020
 20
239.005956
 30
0.0
  0
SPLINE
  5
143
100
AcDbEntity
  8
Layer_1
 62
7
100
AcDbSpline
 70
8
 71
3
 72
8
 73
4
 74
0
 40
0
 40
0
 40
0
 40
0
 40
1
 40
1
 40
1
 40
1
 10
110.432020
 20
239.005956
 30
0.0
 10
109.320907
 20
239.005956
 30
0.0
 10
108.323173
 20
239.187362
 30
0.0
 10
107.438820
 20
239.550174
 30
0.0
  0
SPLINE
  5
144
100
AcDbEntity
  8
Layer_1
 62
7
100
AcDbSpline
 70
8
 71
3
 72
8
 73
4
 74
0
 40
0
 40
0
 40
0
 40
0
 40
1
 40
1
 40
1
 40
1
 10
107.438820
 20
239.550174
 30
0.0
 10
106.577140
 20
239.912985
 30
0.0
 10
105.885530
 20
240.536568
 30
0.0
 10
105.363990
 20
241.420922
 30
0.0
  0
SPLINE
  5
145
100
AcDbEntity
  8
Layer_1
 62
7
100
AcDbSpline
 70
8
 71
3
 72
8
 73
4
 74
0
 40
0
 40
0
 40
0
 40
0
 40
1
 40
1
 40
1
 40
1
 10
105.363990
 20
241.420922
 30
0.0
 10
104.865123
 20
242.327951
 30
0.0
 10
104.615690
 20
243.575117
 30
0.0
 10
104.615690
 20
245.162418
 30
0.0
  0
LINE
  5
146
100
AcDbEntity
  8
Layer_1
 62
7
100
AcDbLine
 10
104.615690
 20
245.162418
 30
0.0
 11
104.615690
 21
254.107994
 31
0.0
  0
LINE
  5
147
100
AcDbEntity
  8
Layer_1
 62
7
100
AcDbLine
 10
104.615690
 20
254.107994
 30
0.0
 11
102.200720
 21
254.107994
 31
0.0
  0
LINE
  5
148
100
AcDbEntity
  8
Layer_1
 62
7
100
AcDbLine
 10
102.200720
 20
254.107994
 30
0.0
 11
102.200720
 21
256.250851
 31
0.0
  0
LINE
  5
149
100
AcDbEntity
  8
Layer_1
 62
7
100
AcDbLine
 10
102.200720
 20
256.250851
 30
0.0
 11
104.989840
 21
257.951531
 31
0.0
  0
LINE
  5
14a
100
AcDbEntity
  8
Layer_1
 62
7
100
AcDbLine
 10
104.989840
 20
257.951531
 30
0.0
 11
106.452420
 21
261.863095
 31
0.0
  0
LINE
  5
14b
100
AcDbEntity
  8
Layer_1
 62
7
100
AcDbLine
 10
106.452420
 20
261.863095
 30
0.0
 11
109.683720
 21
261.863095
 31
0.0
  0
LINE
  5
14c
100
AcDbEntity
  8
Layer_1
 62
7
100
AcDbLine
 10
109.683720
 20
261.863095
 30
0.0
 11
109.683720
 21
257.917517
 31
0.0
  0
LINE
  5
14d
100
AcDbEntity
  8
Layer_1
 62
7
100
AcDbLine
 10
109.683720
 20
257.917517
 30
0.0
 11
114.887800
 21
257.917517
 31
0.0
  0
LINE
  5
14e
100
AcDbEntity
  8
Layer_1
 62
7
100
AcDbLine
 10
114.887800
 20
257.917517
 30
0.0
 11
114.887800
 21
254.107994
 31
0.0
  0
LINE
  5
14f
100
AcDbEntity
  8
Layer_1
 62
7
100
AcDbLine
 10
114.887800
 20
254.107994
 30
0.0
 11
109.683720
 21
254.107994
 31
0.0
  0
LINE
  5
150
100
AcDbEntity
  8
Layer_1
 62
7
100
AcDbLine
 10
109.683720
 20
254.107994
 30
0.0
 11
109.683720
 21
245.162418
 31
0.0
  0
SPLINE
  5
151
100
AcDbEntity
  8
Layer_1
 62
7
100
AcDbSpline
 70
8
 71
3
 72
8
 73
4
 74
0
 40
0
 40
0
 40
0
 40
0
 40
1
 40
1
 40
1
 40
1
 10
109.683720
 20
245.162418
 30
0.0
 10
109.683720
 20
244.459470
 30
0.0
 10
109.887800
 20
243.926590
 30
0.0
 10
110.295960
 20
243.563779
 30
0.0
  0
SPLINE
  5
152
100
AcDbEntity
  8
Layer_1
 62
7
100
AcDbSpline
 70
8
 71
3
 72
8
 73
4
 74
0
 40
0
 40
0
 40
0
 40
0
 40
1
 40
1
 40
1
 40
1
 10
110.295960
 20
243.563779
 30
0.0
 10
110.704127
 20
243.223643
 30
0.0
 10
111.237007
 20
243.053575
 30
0.0
 10
111.894600
 20
243.053575
 30
0.0
  0
LINE
  5
153
100
AcDbEntity
  8
Layer_1
 62
7
100
AcDbLine
 10
111.894600
 20
243.053575
 30
0.0
 11
111.894600
 21
243.053575
 31
0.0
  0
SPLINE
  5
154
100
AcDbEntity
  8
Layer_1
 62
7
100
AcDbSpline
 70
8
 71
3
 72
8
 73
4
 74
0
 40
0
 40
0
 40
0
 40
0
 40
1
 40
1
 40
1
 40
1
 10
121.384390
 20
265.196428
 30
0.0
 10
122.132690
 20
265.196428
 30
0.0
 10
122.778950
 20
265.015022
 30
0.0
 10
123.323170
 20
264.652210
 30
0.0
  0
SPLINE
  5
155
100
AcDbEntity
  8
Layer_1
 62
7
100
AcDbSpline
 70
8
 71
3
 72
8
 73
4
 74
0
 40
0
 40
0
 40
0
 40
0
 40
1
 40
1
 40
1
 40
1
 10
123.323170
 20
264.652210
 30
0.0
 10
123.867390
 20
264.312074
 30
0.0
 10
124.139500
 20
263.665816
 30
0.0
 10
124.139500
 20
262.713435
 30
0.0
  0
SPLINE
  5
156
100
AcDbEntity
  8
Layer_1
 62
7
100
AcDbSpline
 70
8
 71
3
 72
8
 73
4
 74
0
 40
0
 40
0
 40
0
 40
0
 40
1
 40
1
 40
1
 40
1
 10
124.139500
 20
262.713435
 30
0.0
 10
124.139500
 20
261.783730
 30
0.0
 10
123.867390
 20
261.137471
 30
0.0
 10
123.323170
 20
260.774660
 30
0.0
  0
SPLINE
  5
157
100
AcDbEntity
  8
Layer_1
 62
7
100
AcDbSpline
 70
8
 71
3
 72
8
 73
4
 74
0
 40
0
 40
0
 40
0
 40
0
 40
1
 40
1
 40
1
 40
1
 10
123.323170
 20
260.774660
 30
0.0
 10
122.778950
 20
260.411848
 30
0.0
 10
122.132690
 20
260.230442
 30
0.0
 10
121.384390
 20
260.230442
 30
0.0
  0
SPLINE
  5
158
100
AcDbEntity
  8
Layer_1
 62
7
100
AcDbSpline
 70
8
 71
3
 72
8
 73
4
 74
0
 40
0
 40
0
 40
0
 40
0
 40
1
 40
1
 40
1
 40
1
 10
121.384390
 20
260.230442
 30
0.0
 10
120.613417
 20
260.230442
 30
0.0
 10
119.955823
 20
260.411848
 30
0.0
 10
119.411610
 20
260.774660
 30
0.0
  0
SPLINE
  5
159
100
AcDbEntity
  8
Layer_1
 62
7
100
AcDbSpline
 70
8
 71
3
 72
8
 73
4
 74
0
 40
0
 40
0
 40
0
 40
0
 40
1
 40
1
 40
1
 40
1
 10
119.411610
 20
260.774660
 30
0.0
 10
118.890063
 20
261.137471
 30
0.0
 10
118.629290
 20
261.783730
 30
0.0
 10
118.629290
 20
262.713435
 30
0.0
  0
SPLINE
  5
15a
100
AcDbEntity
  8
Layer_1
 62
7
100
AcDbSpline
 70
8
 71
3
 72
8
 73
4
 74
0
 40
0
 40
0
 40
0
 40
0
 40
1
 40
1
 40
1
 40
1
 10
118.629290
 20
262.713435
 30
0.0
 10
118.629290
 20
263.665816
 30
0.0
 10
118.890063
 20
264.312074
 30
0.0
 10
119.411610
 20
264.652210
 30
0.0
  0
SPLINE
  5
15b
100
AcDbEntity
  8
Layer_1
 62
7
100
AcDbSpline
 70
8
 71
3
 72
8
 73
4
 74
0
 40
0
 40
0
 40
0
 40
0
 40
1
 40
1
 40
1
 40
1
 10
119.411610
 20
264.652210
 30
0.0
 10
119.955823
 20
265.015022
 30
0.0
 10
120.613417
 20
265.196428
 30
0.0
 10
121.384390
 20
265.196428
 30
0.0
  0
LINE
  5
15c
100
AcDbEntity
  8
Layer_1
 62
7
100
AcDbLine
 10
121.384390
 20
265.196428
 30
0.0
 11
121.384390
 21
265.196428
 31
0.0
  0
LINE
  5
15d
100
AcDbEntity
  8
Layer_1
 62
7
100
AcDbLine
 10
123.901400
 20
257.917517
 30
0.0
 11
123.901400
 21
239.346092
 31
0.0
  0
LINE
  5
15e
100
AcDbEntity
  8
Layer_1
 62
7
100
AcDbLine
 10
123.901400
 20
239.346092
 30
0.0
 11
118.833370
 21
239.346092
 31
0.0
  0
LINE
  5
15f
100
AcDbEntity
  8
Layer_1
 62
7
100
AcDbLine
 10
118.833370
 20
239.346092
 30
0.0
 11
118.833370
 21
257.917517
 31
0.0
  0
LINE
  5
160
100
AcDbEntity
  8
Layer_1
 62
7
100
AcDbLine
 10
118.833370
 20
257.917517
 30
0.0
 11
123.901400
 21
257.917517
 31
0.0
  0
SPLINE
  5
161
100
AcDbEntity
  8
Layer_1
 62
7
100
AcDbSpline
 70
8
 71
3
 72
8
 73
4
 74
0
 40
0
 40
0
 40
0
 40
0
 40
1
 40
1
 40
1
 40
1
 10
139.751740
 20
258.257653
 30
0.0
 10
141.747207
 20
258.257653
 30
0.0
 10
143.345847
 20
257.713436
 30
0.0
 10
144.547660
 20
256.625001
 30
0.0
  0
SPLINE
  5
162
100
AcDbEntity
  8
Layer_1
 62
7
100
AcDbSpline
 70
8
 71
3
 72
8
 73
4
 74
0
 40
0
 40
0
 40
0
 40
0
 40
1
 40
1
 40
1
 40
1
 10
144.547660
 20
256.625001
 30
0.0
 10
145.749473
 20
255.559242
 30
0.0
 10
146.350380
 20
253.835886
 30
0.0
 10
146.350380
 20
251.454934
 30
0.0
  0
LINE
  5
163
100
AcDbEntity
  8
Layer_1
 62
7
100
AcDbLine
 10
146.350380
 20
251.454934
 30
0.0
 11
146.350380
 21
239.346092
 31
0.0
  0
LINE
  5
164
100
AcDbEntity
  8
Layer_1
 62
7
100
AcDbLine
 10
146.350380
 20
239.346092
 30
0.0
 11
141.282350
 21
239.346092
 31
0.0
  0
LINE
  5
165
100
AcDbEntity
  8
Layer_1
 62
7
100
AcDbLine
 10
141.282350
 20
239.346092
 30
0.0
 11
141.282350
 21
250.196430
 31
0.0
  0
SPLINE
  5
166
100
AcDbEntity
  8
Layer_1
 62
7
100
AcDbSpline
 70
8
 71
3
 72
8
 73
4
 74
0
 40
0
 40
0
 40
0
 40
0
 40
1
 40
1
 40
1
 40
1
 10
141.282350
 20
250.196430
 30
0.0
 10
141.282350
 20
251.534299
 30
0.0
 10
141.044257
 20
252.532031
 30
0.0
 10
140.568070
 20
253.189627
 30
0.0
  0
SPLINE
  5
167
100
AcDbEntity
  8
Layer_1
 62
7
100
AcDbSpline
 70
8
 71
3
 72
8
 73
4
 74
0
 40
0
 40
0
 40
0
 40
0
 40
1
 40
1
 40
1
 40
1
 10
140.568070
 20
253.189627
 30
0.0
 10
140.091877
 20
253.869899
 30
0.0
 10
139.332240
 20
254.210035
 30
0.0
 10
138.289160
 20
254.210035
 30
0.0
  0
SPLINE
  5
168
100
AcDbEntity
  8
Layer_1
 62
7
100
AcDbSpline
 70
8
 71
3
 72
8
 73
4
 74
0
 40
0
 40
0
 40
0
 40
0
 40
1
 40
1
 40
1
 40
1
 10
138.289160
 20
254.210035
 30
0.0
 10
136.747207
 20
254.210035
 30
0.0
 10
135.692783
 20
253.677155
 30
0.0
 10
135.125890
 20
252.611396
 30
0.0
  0
SPLINE
  5
169
100
AcDbEntity
  8
Layer_1
 62
7
100
AcDbSpline
 70
8
 71
3
 72
8
 73
4
 74
0
 40
0
 40
0
 40
0
 40
0
 40
1
 40
1
 40
1
 40
1
 10
135.125890
 20
252.611396
 30
0.0
 10
134.558997
 20
251.568312
 30
0.0
 10
134.275550
 20
250.060376
 30
0.0
 10
134.275550
 20
248.087587
 30
0.0
  0
LINE
  5
16a
100
AcDbEntity
  8
Layer_1
 62
7
100
AcDbLine
 10
134.275550
 20
248.087587
 30
0.0
 11
134.275550
 21
239.346092
 31
0.0
  0
LINE
  5
16b
100
AcDbEntity
  8
Layer_1
 62
7
100
AcDbLine
 10
134.275550
 20
239.346092
 30
0.0
 11
129.207530
 21
239.346092
 31
0.0
  0
LINE
  5
16c
100
AcDbEntity
  8
Layer_1
 62
7
100
AcDbLine
 10
129.207530
 20
239.346092
 30
0.0
 11
129.207530
 21
257.917517
 31
0.0
  0
LINE
  5
16d
100
AcDbEntity
  8
Layer_1
 62
7
100
AcDbLine
 10
129.207530
 20
257.917517
 30
0.0
 11
133.085080
 21
257.917517
 31
0.0
  0
LINE
  5
16e
100
AcDbEntity
  8
Layer_1
 62
7
100
AcDbLine
 10
133.085080
 20
257.917517
 30
0.0
 11
133.765350
 21
255.536566
 31
0.0
  0
LINE
  5
16f
100
AcDbEntity
  8
Layer_1
 62
7
100
AcDbLine
 10
133.765350
 20
255.536566
 30
0.0
 11
134.037460
 21
255.536566
 31
0.0
  0
SPLINE
  5
170
100
AcDbEntity
  8
Layer_1
 62
7
100
AcDbSpline
 70
8
 71
3
 72
8
 73
4
 74
0
 40
0
 40
0
 40
0
 40
0
 40
1
 40
1
 40
1
 40
1
 10
134.037460
 20
255.536566
 30
0.0
 10
134.627027
 20
256.488947
 30
0.0
 10
135.432013
 20
257.180556
 30
0.0
 10
136.452420
 20
257.611395
 30
0.0
  0
SPLINE
  5
171
100
AcDbEntity
  8
Layer_1
 62
7
100
AcDbSpline
 70
8
 71
3
 72
8
 73
4
 74
0
 40
0
 40
0
 40
0
 40
0
 40
1
 40
1
 40
1
 40
1
 10
136.452420
 20
257.611395
 30
0.0
 10
137.495507
 20
258.042234
 30
0.0
 10
138.595280
 20
258.257653
 30
0.0
 10
139.751740
 20
258.257653
 30
0.0
  0
LINE
  5
172
100
AcDbEntity
  8
Layer_1
 62
7
100
AcDbLine
 10
139.751740
 20
258.257653
 30
0.0
 11
139.751740
 21
258.257653
 31
0.0
  0
SPLINE
  5
173
100
AcDbEntity
  8
Layer_1
 62
7
100
AcDbSpline
 70
8
 71
3
 72
8
 73
4
 74
0
 40
0
 40
0
 40
0
 40
0
 40
1
 40
1
 40
1
 40
1
 10
157.574860
 20
258.257653
 30
0.0
 10
159.865107
 20
258.257653
 30
0.0
 10
161.656490
 20
257.350624
 30
0.0
 10
162.949010
 20
255.536566
 30
0.0
  0
LINE
  5
174
100
AcDbEntity
  8
Layer_1
 62
7
100
AcDbLine
 10
162.949010
 20
255.536566
 30
0.0
 11
163.085060
 21
255.536566
 31
0.0
  0
LINE
  5
175
100
AcDbEntity
  8
Layer_1
 62
7
100
AcDbLine
 10
163.085060
 20
255.536566
 30
0.0
 11
163.493220
 21
257.917517
 31
0.0
  0
LINE
  5
176
100
AcDbEntity
  8
Layer_1
 62
7
100
AcDbLine
 10
163.493220
 20
257.917517
 30
0.0
 11
167.778940
 21
257.917517
 31
0.0
  0
LINE
  5
177
100
AcDbEntity
  8
Layer_1
 62
7
100
AcDbLine
 10
167.778940
 20
257.917517
 30
0.0
 11
167.778940
 21
239.312079
 31
0.0
  0
SPLINE
  5
178
100
AcDbEntity
  8
Layer_1
 62
7
100
AcDbSpline
 70
8
 71
3
 72
8
 73
4
 74
0
 40
0
 40
0
 40
0
 40
0
 40
1
 40
1
 40
1
 40
1
 10
167.778940
 20
239.312079
 30
0.0
 10
167.778940
 20
236.659018
 30
0.0
 10
166.996627
 20
234.640877
 30
0.0
 10
165.432000
 20
233.257658
 30
0.0
  0
SPLINE
  5
179
100
AcDbEntity
  8
Layer_1
 62
7
100
AcDbSpline
 70
8
 71
3
 72
8
 73
4
 74
0
 40
0
 40
0
 40
0
 40
0
 40
1
 40
1
 40
1
 40
1
 10
165.432000
 20
233.257658
 30
0.0
 10
163.867373
 20
231.874438
 30
0.0
 10
161.554450
 20
231.182828
 30
0.0
 10
158.493230
 20
231.182828
 30
0.0
  0
SPLINE
  5
17a
100
AcDbEntity
  8
Layer_1
 62
7
100
AcDbSpline
 70
8
 71
3
 72
8
 73
4
 74
0
 40
0
 40
0
 40
0
 40
0
 40
1
 40
1
 40
1
 40
1
 10
158.493230
 20
231.182828
 30
0.0
 10
157.178037
 20
231.182828
 30
0.0
 10
155.953547
 20
231.262193
 30
0.0
 10
154.819760
 20
231.420924
 30
0.0
  0
SPLINE
  5
17b
100
AcDbEntity
  8
Layer_1
 62
7
100
AcDbSpline
 70
8
 71
3
 72
8
 73
4
 74
0
 40
0
 40
0
 40
0
 40
0
 40
1
 40
1
 40
1
 40
1
 10
154.819760
 20
231.420924
 30
0.0
 10
153.708647
 20
231.579654
 30
0.0
 10
152.620210
 20
231.863101
 30
0.0
 10
151.554450
 20
232.271264
 30
0.0
  0
LINE
  5
17c
100
AcDbEntity
  8
Layer_1
 62
7
100
AcDbLine
 10
151.554450
 20
232.271264
 30
0.0
 11
151.554450
 21
236.318882
 31
0.0
  0
SPLINE
  5
17d
100
AcDbEntity
  8
Layer_1
 62
7
100
AcDbSpline
 70
8
 71
3
 72
8
 73
4
 74
0
 40
0
 40
0
 40
0
 40
0
 40
1
 40
1
 40
1
 40
1
 10
151.554450
 20
236.318882
 30
0.0
 10
153.844697
 20
235.366501
 30
0.0
 10
156.259663
 20
234.890311
 30
0.0
 10
158.799350
 20
234.890311
 30
0.0
  0
SPLINE
  5
17e
100
AcDbEntity
  8
Layer_1
 62
7
100
AcDbSpline
 70
8
 71
3
 72
8
 73
4
 74
0
 40
0
 40
0
 40
0
 40
0
 40
1
 40
1
 40
1
 40
1
 10
158.799350
 20
234.890311
 30
0.0
 10
161.407057
 20
234.890311
 30
0.0
 10
162.710910
 20
236.296206
 30
0.0
 10
162.710910
 20
239.107997
 30
0.0
  0
LINE
  5
17f
100
AcDbEntity
  8
Layer_1
 62
7
100
AcDbLine
 10
162.710910
 20
239.107997
 30
0.0
 11
162.710910
 21
239.482147
 31
0.0
  0
SPLINE
  5
180
100
AcDbEntity
  8
Layer_1
 62
7
100
AcDbSpline
 70
8
 71
3
 72
8
 73
4
 74
0
 40
0
 40
0
 40
0
 40
0
 40
1
 40
1
 40
1
 40
1
 10
162.710910
 20
239.482147
 30
0.0
 10
162.710910
 20
239.867634
 30
0.0
 10
162.722243
 20
240.264460
 30
0.0
 10
162.744910
 20
240.672623
 30
0.0
  0
SPLINE
  5
181
100
AcDbEntity
  8
Layer_1
 62
7
100
AcDbSpline
 70
8
 71
3
 72
8
 73
4
 74
0
 40
0
 40
0
 40
0
 40
0
 40
1
 40
1
 40
1
 40
1
 10
162.744910
 20
240.672623
 30
0.0
 10
162.790243
 20
241.080786
 30
0.0
 10
162.824257
 20
241.443597
 30
0.0
 10
162.846950
 20
241.761058
 30
0.0
  0
LINE
  5
182
100
AcDbEntity
  8
Layer_1
 62
7
100
AcDbLine
 10
162.846950
 20
241.761058
 30
0.0
 11
162.710890
 21
241.761058
 31
0.0
  0
SPLINE
  5
183
100
AcDbEntity
  8
Layer_1
 62
7
100
AcDbSpline
 70
8
 71
3
 72
8
 73
4
 74
0
 40
0
 40
0
 40
0
 40
0
 40
1
 40
1
 40
1
 40
1
 10
162.710890
 20
241.761058
 30
0.0
 10
162.075970
 20
240.786001
 30
0.0
 10
161.316333
 20
240.083054
 30
0.0
 10
160.431980
 20
239.652215
 30
0.0
  0
SPLINE
  5
184
100
AcDbEntity
  8
Layer_1
 62
7
100
AcDbSpline
 70
8
 71
3
 72
8
 73
4
 74
0
 40
0
 40
0
 40
0
 40
0
 40
1
 40
1
 40
1
 40
1
 10
160.431980
 20
239.652215
 30
0.0
 10
159.547627
 20
239.221376
 30
0.0
 10
158.549893
 20
239.005956
 30
0.0
 10
157.438780
 20
239.005956
 30
0.0
  0
SPLINE
  5
185
100
AcDbEntity
  8
Layer_1
 62
7
100
AcDbSpline
 70
8
 71
3
 72
8
 73
4
 74
0
 40
0
 40
0
 40
0
 40
0
 40
1
 40
1
 40
1
 40
1
 10
157.438780
 20
239.005956
 30
0.0
 10
155.239233
 20
239.005956
 30
0.0
 10
153.515880
 20
239.844958
 30
0.0
 10
152.268720
 20
241.522963
 30
0.0
  0
SPLINE
  5
186
100
AcDbEntity
  8
Layer_1
 62
7
100
AcDbSpline
 70
8
 71
3
 72
8
 73
4
 74
0
 40
0
 40
0
 40
0
 40
0
 40
1
 40
1
 40
1
 40
1
 10
152.268720
 20
241.522963
 30
0.0
 10
151.044227
 20
243.223643
 30
0.0
 10
150.431980
 20
245.581919
 30
0.0
 10
150.431980
 20
248.597791
 30
0.0
  0
SPLINE
  5
187
100
AcDbEntity
  8
Layer_1
 62
7
100
AcDbSpline
 70
8
 71
3
 72
8
 73
4
 74
0
 40
0
 40
0
 40
0
 40
0
 40
1
 40
1
 40
1
 40
1
 10
150.431980
 20
248.597791
 30
0.0
 10
150.431980
 20
251.636340
 30
0.0
 10
151.066900
 20
254.005954
 30
0.0
 10
152.336740
 20
255.706634
 30
0.0
  0
SPLINE
  5
188
100
AcDbEntity
  8
Layer_1
 62
7
100
AcDbSpline
 70
8
 71
3
 72
8
 73
4
 74
0
 40
0
 40
0
 40
0
 40
0
 40
1
 40
1
 40
1
 40
1
 10
152.336740
 20
255.706634
 30
0.0
 10
153.606587
 20
257.407313
 30
0.0
 10
155.352620
 20
258.257653
 30
0.0
 10
157.574840
 20
258.257653
 30
0.0
  0
LINE
  5
189
100
AcDbEntity
  8
Layer_1
 62
7
100
AcDbLine
 10
157.574840
 20
258.257653
 30
0.0
 11
157.574860
 21
258.257653
 31
0.0
  0
SPLINE
  5
18a
100
AcDbEntity
  8
Layer_1
 62
7
100
AcDbSpline
 70
8
 71
3
 72
8
 73
4
 74
0
 40
0
 40
0
 40
0
 40
0
 40
1
 40
1
 40
1
 40
1
 10
159.173500
 20
254.142008
 30
0.0
 10
156.792547
 20
254.142008
 30
0.0
 10
155.602070
 20
252.271260
 30
0.0
 10
155.602070
 20
248.529764
 30
0.0
  0
SPLINE
  5
18b
100
AcDbEntity
  8
Layer_1
 62
7
100
AcDbSpline
 70
8
 71
3
 72
8
 73
4
 74
0
 40
0
 40
0
 40
0
 40
0
 40
1
 40
1
 40
1
 40
1
 10
155.602070
 20
248.529764
 30
0.0
 10
155.602070
 20
244.833619
 30
0.0
 10
156.815220
 20
242.985547
 30
0.0
 10
159.241520
 20
242.985547
 30
0.0
  0
SPLINE
  5
18c
100
AcDbEntity
  8
Layer_1
 62
7
100
AcDbSpline
 70
8
 71
3
 72
8
 73
4
 74
0
 40
0
 40
0
 40
0
 40
0
 40
1
 40
1
 40
1
 40
1
 10
159.241520
 20
242.985547
 30
0.0
 10
160.534040
 20
242.985547
 30
0.0
 10
161.486423
 20
243.348359
 30
0.0
 10
162.098670
 20
244.073983
 30
0.0
  0
SPLINE
  5
18d
100
AcDbEntity
  8
Layer_1
 62
7
100
AcDbSpline
 70
8
 71
3
 72
8
 73
4
 74
0
 40
0
 40
0
 40
0
 40
0
 40
1
 40
1
 40
1
 40
1
 10
162.098670
 20
244.073983
 30
0.0
 10
162.733590
 20
244.822282
 30
0.0
 10
163.051050
 20
246.114798
 30
0.0
 10
163.051050
 20
247.951533
 30
0.0
  0
LINE
  5
18e
100
AcDbEntity
  8
Layer_1
 62
7
100
AcDbLine
 10
163.051050
 20
247.951533
 30
0.0
 11
163.051050
 21
248.563778
 31
0.0
  0
SPLINE
  5
18f
100
AcDbEntity
  8
Layer_1
 62
7
100
AcDbSpline
 70
8
 71
3
 72
8
 73
4
 74
0
 40
0
 40
0
 40
0
 40
0
 40
1
 40
1
 40
1
 40
1
 10
163.051050
 20
248.563778
 30
0.0
 10
163.051050
 20
250.559242
 30
0.0
 10
162.744927
 20
251.987813
 30
0.0
 10
162.132680
 20
252.849491
 30
0.0
  0
SPLINE
  5
190
100
AcDbEntity
  8
Layer_1
 62
7
100
AcDbSpline
 70
8
 71
3
 72
8
 73
4
 74
0
 40
0
 40
0
 40
0
 40
0
 40
1
 40
1
 40
1
 40
1
 10
162.132680
 20
252.849491
 30
0.0
 10
161.520433
 20
253.711169
 30
0.0
 10
160.534040
 20
254.142008
 30
0.0
 10
159.173500
 20
254.142008
 30
0.0
  0
LINE
  5
191
100
AcDbEntity
  8
Layer_1
 62
7
100
AcDbLine
 10
159.173500
 20
254.142008
 30
0.0
 11
159.173500
 21
254.142008
 31
0.0
  0
ENDSEC
  0
SECTION
  2
OBJECTS
  0
DICTIONARY
  5
C
330
0
100
AcDbDictionary
  3
ACAD_GROUP
350
D
  3
ACAD_MLINESTYLE
350
17
  0
DICTIONARY
  5
D
330
C
100
AcDbDictionary
  0
DICTIONARY
  5
1A
330
C
100
AcDbDictionary
  0
DICTIONARY
  5
17
330
C
100
AcDbDictionary
  3
STANDARD
350
18
  0
DICTIONARY
  5
19
330
C
100
AcDbDictionary
  0
ENDSEC
  0
EOF
